<svg width="206" height="44" viewBox="0 0 206 44" fill="none" xmlns="http://www.w3.org/2000/svg">
<path d="M1.38 43C0.98 43 0.78 42.8 0.78 42.4V1.6C0.78 1.2 0.98 0.999997 1.38 0.999997H15C18.64 0.999997 21.5 1.98 23.58 3.94C25.7 5.86 26.76 8.52 26.76 11.92V32.08C26.76 35.48 25.7 38.16 23.58 40.12C21.5 42.04 18.64 43 15 43H1.38ZM2.58 41.08C2.58 41.24 2.66 41.32 2.82 41.32H15.12C18.16 41.32 20.56 40.5 22.32 38.86C24.08 37.18 24.96 34.9 24.96 32.02V12.04C24.96 9.12 24.08 6.84 22.32 5.2C20.56 3.52 18.16 2.68 15.12 2.68H2.82C2.66 2.68 2.58 2.76 2.58 2.92V41.08ZM49.5141 43.42C46.8741 43.42 44.5341 42.88 42.4941 41.8C40.4941 40.68 38.9341 39.14 37.8141 37.18C36.6941 35.18 36.1341 32.88 36.1341 30.28V13.78C36.1341 11.18 36.6941 8.88 37.8141 6.88C38.9341 4.84 40.4941 3.28 42.4941 2.2C44.5341 1.08 46.8741 0.52 49.5141 0.52C52.1941 0.52 54.5541 1.08 56.5941 2.2C58.6341 3.28 60.2141 4.84 61.3341 6.88C62.4541 8.88 63.0141 11.18 63.0141 13.78V30.28C63.0141 32.88 62.4541 35.18 61.3341 37.18C60.2141 39.14 58.6341 40.68 56.5941 41.8C54.5541 42.88 52.1941 43.42 49.5141 43.42ZM49.5141 41.8C53.0341 41.8 55.8541 40.76 57.9741 38.68C60.1341 36.56 61.2141 33.78 61.2141 30.34V13.72C61.2141 10.28 60.1341 7.5 57.9741 5.38C55.8541 3.26 53.0341 2.2 49.5141 2.2C46.0341 2.2 43.2341 3.26 41.1141 5.38C38.9941 7.5 37.9341 10.28 37.9341 13.72V30.34C37.9341 33.78 38.9941 36.56 41.1141 38.68C43.2341 40.76 46.0341 41.8 49.5141 41.8ZM86.7183 43.48C84.0783 43.48 81.7583 42.98 79.7583 41.98C77.7583 40.94 76.1983 39.5 75.0783 37.66C73.9983 35.78 73.4583 33.62 73.4583 31.18V12.82C73.4583 10.38 73.9983 8.24 75.0783 6.4C76.1983 4.52 77.7583 3.08 79.7583 2.08C81.7583 1.04 84.0783 0.52 86.7183 0.52C89.3183 0.52 91.6183 1.04 93.6183 2.08C95.6183 3.08 97.1583 4.52 98.2383 6.4C99.3183 8.24 99.8583 10.36 99.8583 12.76V13.66C99.8583 14.06 99.6583 14.26 99.2583 14.26H98.6583C98.2583 14.26 98.0583 14.06 98.0583 13.66V12.7C98.0583 9.54 97.0183 7 94.9383 5.08C92.8583 3.16 90.1183 2.2 86.7183 2.2C83.2783 2.2 80.4983 3.18 78.3783 5.14C76.2983 7.06 75.2583 9.6 75.2583 12.76V31.24C75.2583 34.4 76.2983 36.96 78.3783 38.92C80.4983 40.84 83.2783 41.8 86.7183 41.8C90.1183 41.8 92.8583 40.86 94.9383 38.98C97.0183 37.06 98.0583 34.52 98.0583 31.36V24.46C98.0583 24.3 97.9783 24.22 97.8183 24.22H87.7983C87.3983 24.22 87.1983 24.02 87.1983 23.62V23.2C87.1983 22.8 87.3983 22.6 87.7983 22.6H99.2583C99.6583 22.6 99.8583 22.8 99.8583 23.2V31.12C99.8583 33.6 99.3183 35.78 98.2383 37.66C97.1583 39.5 95.6183 40.94 93.6183 41.98C91.6183 42.98 89.3183 43.48 86.7183 43.48ZM134.446 0.999997C134.846 0.999997 135.046 1.2 135.046 1.6V2.08C135.046 2.48 134.846 2.68 134.446 2.68H122.206C122.046 2.68 121.966 2.76 121.966 2.92V42.4C121.966 42.8 121.766 43 121.366 43H120.766C120.366 43 120.166 42.8 120.166 42.4V2.92C120.166 2.76 120.086 2.68 119.926 2.68H108.286C107.886 2.68 107.686 2.48 107.686 2.08V1.6C107.686 1.2 107.886 0.999997 108.286 0.999997H134.446ZM153.166 43.42C150.526 43.42 148.186 42.88 146.146 41.8C144.146 40.68 142.586 39.14 141.466 37.18C140.346 35.18 139.786 32.88 139.786 30.28V13.78C139.786 11.18 140.346 8.88 141.466 6.88C142.586 4.84 144.146 3.28 146.146 2.2C148.186 1.08 150.526 0.52 153.166 0.52C155.846 0.52 158.206 1.08 160.246 2.2C162.286 3.28 163.866 4.84 164.986 6.88C166.106 8.88 166.666 11.18 166.666 13.78V30.28C166.666 32.88 166.106 35.18 164.986 37.18C163.866 39.14 162.286 40.68 160.246 41.8C158.206 42.88 155.846 43.42 153.166 43.42ZM153.166 41.8C156.686 41.8 159.506 40.76 161.626 38.68C163.786 36.56 164.866 33.78 164.866 30.34V13.72C164.866 10.28 163.786 7.5 161.626 5.38C159.506 3.26 156.686 2.2 153.166 2.2C149.686 2.2 146.886 3.26 144.766 5.38C142.646 7.5 141.586 10.28 141.586 13.72V30.34C141.586 33.78 142.646 36.56 144.766 38.68C146.886 40.76 149.686 41.8 153.166 41.8ZM204.051 43C203.691 43 203.451 42.86 203.331 42.58L193.731 22.9C193.691 22.78 193.611 22.72 193.491 22.72H180.711C180.551 22.72 180.471 22.8 180.471 22.96V42.4C180.471 42.8 180.271 43 179.871 43H179.271C178.871 43 178.671 42.8 178.671 42.4V1.6C178.671 1.2 178.871 0.999997 179.271 0.999997H193.791C197.031 0.999997 199.631 2.02 201.591 4.06C203.591 6.06 204.591 8.68 204.591 11.92C204.591 14.84 203.791 17.26 202.191 19.18C200.591 21.06 198.431 22.18 195.711 22.54C195.511 22.62 195.451 22.72 195.531 22.84L205.011 42.28C205.051 42.36 205.071 42.46 205.071 42.58C205.071 42.86 204.911 43 204.591 43H204.051ZM180.711 2.68C180.551 2.68 180.471 2.76 180.471 2.92V20.86C180.471 21.02 180.551 21.1 180.711 21.1H193.791C196.471 21.1 198.631 20.26 200.271 18.58C201.951 16.86 202.791 14.64 202.791 11.92C202.791 9.16 201.951 6.94 200.271 5.26C198.631 3.54 196.471 2.68 193.791 2.68H180.711Z" fill="#41C4E5"/>
</svg>
