<svg width="127" height="28" viewBox="0 0 127 28" fill="none" xmlns="http://www.w3.org/2000/svg">
<path d="M0.551 27C0.304334 27 0.181 26.8767 0.181 26.63V1.47C0.181 1.22333 0.304334 1.1 0.551 1.1H8.95C11.1947 1.1 12.9583 1.70433 14.241 2.913C15.5483 4.097 16.202 5.73733 16.202 7.834V20.266C16.202 22.3627 15.5483 24.0153 14.241 25.224C12.9583 26.408 11.1947 27 8.95 27H0.551ZM1.291 25.816C1.291 25.9147 1.34033 25.964 1.439 25.964H9.024C10.8987 25.964 12.3787 25.4583 13.464 24.447C14.5493 23.411 15.092 22.005 15.092 20.229V7.908C15.092 6.10733 14.5493 4.70133 13.464 3.69C12.3787 2.654 10.8987 2.136 9.024 2.136H1.439C1.34033 2.136 1.291 2.18533 1.291 2.284V25.816ZM30.2337 27.259C28.6057 27.259 27.1627 26.926 25.9047 26.26C24.6713 25.5693 23.7093 24.6197 23.0187 23.411C22.328 22.1777 21.9827 20.7593 21.9827 19.156V8.981C21.9827 7.37767 22.328 5.95933 23.0187 4.726C23.7093 3.468 24.6713 2.506 25.9047 1.84C27.1627 1.14933 28.6057 0.804 30.2337 0.804C31.8863 0.804 33.3417 1.14933 34.5997 1.84C35.8577 2.506 36.832 3.468 37.5227 4.726C38.2133 5.95933 38.5587 7.37767 38.5587 8.981V19.156C38.5587 20.7593 38.2133 22.1777 37.5227 23.411C36.832 24.6197 35.8577 25.5693 34.5997 26.26C33.3417 26.926 31.8863 27.259 30.2337 27.259ZM30.2337 26.26C32.4043 26.26 34.1433 25.6187 35.4507 24.336C36.7827 23.0287 37.4487 21.3143 37.4487 19.193V8.944C37.4487 6.82267 36.7827 5.10833 35.4507 3.801C34.1433 2.49367 32.4043 1.84 30.2337 1.84C28.0877 1.84 26.361 2.49367 25.0537 3.801C23.7463 5.10833 23.0927 6.82267 23.0927 8.944V19.193C23.0927 21.3143 23.7463 23.0287 25.0537 24.336C26.361 25.6187 28.0877 26.26 30.2337 26.26ZM53.1763 27.296C51.5483 27.296 50.1176 26.9877 48.8843 26.371C47.6509 25.7297 46.6889 24.8417 45.9983 23.707C45.3323 22.5477 44.9993 21.2157 44.9993 19.711V8.389C44.9993 6.88433 45.3323 5.56467 45.9983 4.43C46.6889 3.27067 47.6509 2.38267 48.8843 1.766C50.1176 1.12467 51.5483 0.804 53.1763 0.804C54.7796 0.804 56.1979 1.12467 57.4313 1.766C58.6646 2.38267 59.6143 3.27067 60.2803 4.43C60.9463 5.56467 61.2793 6.872 61.2793 8.352V8.907C61.2793 9.15367 61.1559 9.277 60.9093 9.277H60.5393C60.2926 9.277 60.1693 9.15367 60.1693 8.907V8.315C60.1693 6.36633 59.5279 4.8 58.2453 3.616C56.9626 2.432 55.2729 1.84 53.1763 1.84C51.0549 1.84 49.3406 2.44433 48.0333 3.653C46.7506 4.837 46.1093 6.40333 46.1093 8.352V19.748C46.1093 21.6967 46.7506 23.2753 48.0333 24.484C49.3406 25.668 51.0549 26.26 53.1763 26.26C55.2729 26.26 56.9626 25.6803 58.2453 24.521C59.5279 23.337 60.1693 21.7707 60.1693 19.822V15.567C60.1693 15.4683 60.1199 15.419 60.0213 15.419H53.8423C53.5956 15.419 53.4723 15.2957 53.4723 15.049V14.79C53.4723 14.5433 53.5956 14.42 53.8423 14.42H60.9093C61.1559 14.42 61.2793 14.5433 61.2793 14.79V19.674C61.2793 21.2033 60.9463 22.5477 60.2803 23.707C59.6143 24.8417 58.6646 25.7297 57.4313 26.371C56.1979 26.9877 54.7796 27.296 53.1763 27.296ZM82.6086 1.1C82.8553 1.1 82.9786 1.22333 82.9786 1.47V1.766C82.9786 2.01266 82.8553 2.136 82.6086 2.136H75.0606C74.962 2.136 74.9126 2.18533 74.9126 2.284V26.63C74.9126 26.8767 74.7893 27 74.5426 27H74.1726C73.926 27 73.8026 26.8767 73.8026 26.63V2.284C73.8026 2.18533 73.7533 2.136 73.6546 2.136H66.4766C66.23 2.136 66.1066 2.01266 66.1066 1.766V1.47C66.1066 1.22333 66.23 1.1 66.4766 1.1H82.6086ZM94.1526 27.259C92.5246 27.259 91.0816 26.926 89.8236 26.26C88.5903 25.5693 87.6283 24.6197 86.9376 23.411C86.247 22.1777 85.9016 20.7593 85.9016 19.156V8.981C85.9016 7.37767 86.247 5.95933 86.9376 4.726C87.6283 3.468 88.5903 2.506 89.8236 1.84C91.0816 1.14933 92.5246 0.804 94.1526 0.804C95.8053 0.804 97.2606 1.14933 98.5186 1.84C99.7766 2.506 100.751 3.468 101.442 4.726C102.132 5.95933 102.478 7.37767 102.478 8.981V19.156C102.478 20.7593 102.132 22.1777 101.442 23.411C100.751 24.6197 99.7766 25.5693 98.5186 26.26C97.2606 26.926 95.8053 27.259 94.1526 27.259ZM94.1526 26.26C96.3233 26.26 98.0623 25.6187 99.3696 24.336C100.702 23.0287 101.368 21.3143 101.368 19.193V8.944C101.368 6.82267 100.702 5.10833 99.3696 3.801C98.0623 2.49367 96.3233 1.84 94.1526 1.84C92.0066 1.84 90.28 2.49367 88.9726 3.801C87.6653 5.10833 87.0116 6.82267 87.0116 8.944V19.193C87.0116 21.3143 87.6653 23.0287 88.9726 24.336C90.28 25.6187 92.0066 26.26 94.1526 26.26ZM125.531 27C125.309 27 125.161 26.9137 125.087 26.741L119.167 14.605C119.143 14.531 119.093 14.494 119.019 14.494H111.138C111.04 14.494 110.99 14.5433 110.99 14.642V26.63C110.99 26.8767 110.867 27 110.62 27H110.25C110.004 27 109.88 26.8767 109.88 26.63V1.47C109.88 1.22333 110.004 1.1 110.25 1.1H119.204C121.202 1.1 122.806 1.729 124.014 2.987C125.248 4.22033 125.864 5.836 125.864 7.834C125.864 9.63467 125.371 11.127 124.384 12.311C123.398 13.4703 122.066 14.161 120.388 14.383C120.265 14.4323 120.228 14.494 120.277 14.568L126.123 26.556C126.148 26.6053 126.16 26.667 126.16 26.741C126.16 26.9137 126.062 27 125.864 27H125.531ZM111.138 2.136C111.04 2.136 110.99 2.18533 110.99 2.284V13.347C110.99 13.4457 111.04 13.495 111.138 13.495H119.204C120.857 13.495 122.189 12.977 123.2 11.941C124.236 10.8803 124.754 9.51133 124.754 7.834C124.754 6.132 124.236 4.763 123.2 3.727C122.189 2.66633 120.857 2.136 119.204 2.136H111.138Z" fill="#41C4E5"/>
</svg>
